<svg xmlns="http://www.w3.org/2000/svg" width="1200" height="675" viewBox="0 0 1200 675"><defs><style>@import url('https://fonts.googleapis.com/css2?family=Nunito+Sans:wght@400;700');.cls-1{fill:#f6f7f8;}.cls-2{font-size:20px;font-family:'Nunito Sans', sans-serif;font-weight:700;}.cls-2,.cls-4{fill:#0e4e81;}.cls-3{font-size:18px;fill:#333f48;font-family:'Nunito Sans', sans-serif;font-weight:400;}</style></defs><g id="BG"><rect class="cls-1" width="1200" height="675"/></g><g id="VIZN3D"><text class="cls-2" transform="translate(275 127.6)">Low Latency<tspan class="cls-3"><tspan x="0" y="33.2"> Under 1 second response times</tspan></tspan></text><text class="cls-2" transform="translate(275 315.5)">Turnkey Solution<tspan class="cls-3"><tspan x="0" y="33.2">Easy integration into any </tspan><tspan x="0" y="58.4">application</tspan></tspan></text><text class="cls-2" transform="translate(275 508.5)">Low BOM Cost<tspan class="cls-3"><tspan x="0" y="33.2">Reduced by over 50% </tspan><tspan x="0" y="58.4">compared to MPU designs</tspan></tspan></text><text class="cls-2" transform="translate(800 122.5)">Compact Design<tspan class="cls-3"><tspan x="0" y="33.2">Small footprint fits residential </tspan><tspan x="0" y="58.4">and commercial smart locks</tspan></tspan></text><text class="cls-2" transform="translate(800 315.5)">Secure Authentication<tspan class="cls-3"><tspan x="0" y="33.2">Liveness detection resists 2D </tspan><tspan x="0" y="58.4">and 3D spoofing attacks</tspan></tspan></text><path class="cls-4" d="M192.66,111.6a32.5,32.5,0,1,0,32.5,32.5A32.54,32.54,0,0,0,192.66,111.6Zm0,60.78a28.28,28.28,0,1,1,28.28-28.28A28.32,28.32,0,0,1,192.66,172.38Z"/><path class="cls-4" d="M210.37,131.51a1.3,1.3,0,0,0-1.8-.37l-12.41,8.19h0l-3.5,2.31-3-1.73h0L181.22,135a1.31,1.31,0,0,0-1.78.48l-.81,1.4a1.32,1.32,0,0,0,.48,1.78l11.44,6.6h0l1.11.64a2.12,2.12,0,0,0,2.22-.07l4.59-3h0l12.4-8.19a1.29,1.29,0,0,0,.37-1.8Z"/><path class="cls-4" d="M177.15,342.71a16,16,0,0,0,3.75,6.5,2.51,2.51,0,0,0,3.09.46l1.4-.81a14,14,0,0,0,1.59.92v1.61a2.49,2.49,0,0,0,1.94,2.45,16.12,16.12,0,0,0,7.48,0,2.5,2.5,0,0,0,1.95-2.45v-1.61a13,13,0,0,0,1.58-.92l1.4.81a2.52,2.52,0,0,0,3.09-.45,16.28,16.28,0,0,0,3.76-6.51,2.52,2.52,0,0,0-1.16-2.89l-1.4-.81a14,14,0,0,0,0-1.83l1.4-.81a2.51,2.51,0,0,0,1.16-2.89,16.24,16.24,0,0,0-3.76-6.5,2.51,2.51,0,0,0-3.09-.45l-1.4.8a11.77,11.77,0,0,0-1.58-.91V324.8a2.51,2.51,0,0,0-1.95-2.45,16.3,16.3,0,0,0-7.48,0A2.5,2.5,0,0,0,187,324.8v1.62a12.54,12.54,0,0,0-1.59.91l-1.4-.8a2.51,2.51,0,0,0-3.09.45,16.1,16.1,0,0,0-3.75,6.5,2.49,2.49,0,0,0,1.15,2.89l1.4.81a14,14,0,0,0,0,1.83l-1.4.81A2.5,2.5,0,0,0,177.15,342.71Zm6.86-2.3a9.75,9.75,0,0,1,0-4.62l.14-.74-2.7-1.56a11.87,11.87,0,0,1,1.62-2.8l2.7,1.56.57-.49a9.65,9.65,0,0,1,4-2.31l.7-.25v-3.12a12.55,12.55,0,0,1,3.24,0v3.12l.7.25a9.59,9.59,0,0,1,4,2.31l.57.49,2.7-1.56a11.87,11.87,0,0,1,1.62,2.8l-2.7,1.56.14.74a9.75,9.75,0,0,1,0,4.62l-.14.73,2.7,1.56a11.68,11.68,0,0,1-1.62,2.8l-2.7-1.56-.57.49a9.54,9.54,0,0,1-4,2.31l-.7.25v3.12a12.55,12.55,0,0,1-3.24,0V347l-.7-.25a9.44,9.44,0,0,1-4-2.31l-.57-.49-2.7,1.56a11.87,11.87,0,0,1-1.62-2.8l2.7-1.56Z"/><path class="cls-4" d="M192.66,343.71A5.62,5.62,0,1,0,187,338.1,5.62,5.62,0,0,0,192.66,343.71Zm0-7.61a2,2,0,1,1-2,2A2,2,0,0,1,192.66,336.1Z"/><path class="cls-4" d="M223.66,338.21h-1.32a1.45,1.45,0,0,0-1.46,1.38A28.27,28.27,0,0,1,167.53,351l-.08-.17h4.34a1.46,1.46,0,0,0,1.46-1.46v-1.32a1.46,1.46,0,0,0-1.46-1.46H161.63a1.46,1.46,0,0,0-1.47,1.46v11a1.47,1.47,0,0,0,1.47,1.47h1.31a1.47,1.47,0,0,0,1.47-1.47v-4.95l.21.36a32.5,32.5,0,0,0,60.5-14.79,1.42,1.42,0,0,0-.4-1.07A1.44,1.44,0,0,0,223.66,338.21Z"/><path class="cls-4" d="M223.7,315.61h-1.32a1.46,1.46,0,0,0-1.46,1.46v5l-.21-.36a32.51,32.51,0,0,0-60.51,14.79,1.42,1.42,0,0,0,.4,1.07,1.47,1.47,0,0,0,1.07.45H163a1.45,1.45,0,0,0,1.46-1.37,28.26,28.26,0,0,1,53.35-11.45l.08.16H213.3a1.47,1.47,0,0,0-1.46,1.47v1.31a1.47,1.47,0,0,0,1.46,1.47h10.4a1.47,1.47,0,0,0,1.46-1.47v-11A1.46,1.46,0,0,0,223.7,315.61Z"/><path class="cls-4" d="M207.87,524.31H209a5,5,0,0,0,3.71-1.71,5.27,5.27,0,0,0,1.26-4,17.11,17.11,0,0,0-4.67-10.14A18.53,18.53,0,0,0,202,504v-2.64a5.73,5.73,0,0,0-6.32-6.3h-6a5.73,5.73,0,0,0-6.32,6.3V504a19.42,19.42,0,0,0-7.69,4.84A16.73,16.73,0,0,0,171,520.61a15.73,15.73,0,0,0,7.71,14.29h-3.75a4.8,4.8,0,0,0-4.84,4.77,4.89,4.89,0,0,0,0,.54,17.4,17.4,0,0,0,5.06,10.89,20,20,0,0,0,8.16,4.78v2.79a5.73,5.73,0,0,0,6.32,6.31h6a5.74,5.74,0,0,0,6.3-5.11,5.35,5.35,0,0,0,0-1.2V556a19.71,19.71,0,0,0,8.17-4.66,17.15,17.15,0,0,0,5-12.52C215.23,532.34,212.9,527.74,207.87,524.31Zm-20,27.85c-7.7-1.26-12.47-5.78-13.08-12.36v-.14h11.43a.42.42,0,0,1,.37.29,6.55,6.55,0,0,0,1.1,2.21A6.45,6.45,0,0,0,193,544.5c2.25,0,3.79-.63,4.57-1.86a3.73,3.73,0,0,0,.57-2.13,4,4,0,0,0-.55-2.35c-.83-1.3-2.67-2.22-6.58-3.27-1.07-.29-2.11-.6-3.08-.92-10.73-3.58-12.21-8.54-12.21-13.38,0-6.62,4.67-11.58,12.19-13H188v-6.3c0-1.41.17-1.64,1.6-1.64h6c1.43,0,1.66.23,1.66,1.64v6.32h.14c7.1,1.25,11.24,5.21,12,11.49a.42.42,0,0,1-.11.32.37.37,0,0,1-.24.12h-11c-.19,0-.25-.2-.27-.29-.07-.28-.14-.53-.22-.76-.76-2.2-2.47-3.28-5.25-3.28-4.16,0-4.48,2.87-4.48,3.75,0,2.62,1.89,3.56,8,5.26l1.52.44c11.6,3.51,13.15,8.8,13.13,14.11,0,7.36-4.67,12.11-13.11,13.36h-.08v6.48c0,1.44-.23,1.68-1.66,1.68h-6c-1.43,0-1.64-.24-1.64-1.65v-6.51Z"/><path class="cls-4" d="M749.19,125.34h0L718.7,110.8a2.23,2.23,0,0,0-1.89,0c-30.41,14.49-30.44,14.51-30.49,14.54a2.18,2.18,0,0,0-1.06,1.88v34.63a2.19,2.19,0,0,0,1.11,1.91l30.3,17.31a2.19,2.19,0,0,0,2.18,0l30.3-17.31a2.21,2.21,0,0,0,1.11-1.91V127.22A2.19,2.19,0,0,0,749.19,125.34Zm-49.5,28.08V166.3l-10-5.73v-12.4Zm0-17.31v12.34l-10-5.25V130.86Zm43.44-8.8-9.21,4.83-11-5.26,9.67-4.6ZM729,134.69l-11.28,5.91-11.29-5.91,11.29-5.37Zm-20.95-14.85,9.67-4.61,9.66,4.61-9.66,4.6Zm4.54,7-11,5.26-9.2-4.83,10.58-5Zm2.93,17.54v12.34l-11.47-6V138.42Zm0,17.32v13.62l-11.47-6.55V155.73Zm15.86-23.32v12.34l-11.46,6V144.42Zm0,17.31v13.08L720,175.36V161.74Zm14.43-24.87V143.2l-10,5.25V136.11Zm0,17.31v12.4l-10,5.72V153.42Z"/><path class="cls-4" d="M748.9,311.1l-28.72-12a7.41,7.41,0,0,0-5.68,0l-28.7,12a7.38,7.38,0,0,0-4.58,6.83,68,68,0,0,0,10.6,37.19c6,9.23,14,16.3,22.67,19.89a7.57,7.57,0,0,0,5.69,0c12.35-5.15,33.27-23,33.27-57.08A7.36,7.36,0,0,0,748.9,311.1Zm-.7,7.81a67.83,67.83,0,0,1-7.62,29.44c-5.46,10.43-13,17.9-21.85,21.61l-1.38.58L716,370c-8.84-3.7-16.4-11.17-21.86-21.6a67.94,67.94,0,0,1-7.64-29.45l0-2.42,30.91-12.88,30.91,12.88Z"/><path class="cls-4" d="M709,323.89a6.73,6.73,0,0,0-.56,3.11v3.17h-.58a2.89,2.89,0,0,0-2.88,2.88v10.36a2.89,2.89,0,0,0,2.88,2.88h19a2.88,2.88,0,0,0,2.88-2.88V333.05a2.88,2.88,0,0,0-2.88-2.88h-.57s0-2,0-3.09a12.86,12.86,0,0,0-.59-3.19A8.89,8.89,0,0,0,711,320.68,8.82,8.82,0,0,0,709,323.89Zm9.75,15.37v1.25a1.37,1.37,0,1,1-2.73,0v-1.25a2.53,2.53,0,1,1,2.73,0Zm-1.38-18.89A6.64,6.64,0,0,1,724,327v3.17H710.71V327A6.64,6.64,0,0,1,717.34,320.37Z"/></g></svg>